<?xml version="1.0" encoding="utf-8"?>
<!-- Generator: Adobe Illustrator 24.1.1, SVG Export Plug-In . SVG Version: 6.00 Build 0)  -->
<svg version="1.1" id="Layer_1" xmlns="http://www.w3.org/2000/svg" xmlns:xlink="http://www.w3.org/1999/xlink" x="0px" y="0px"
	 viewBox="0 0 500 500" style="enable-background:new 0 0 500 500;" xml:space="preserve">
<style type="text/css">
	.st0{fill:#FFFFFF;}
</style>
<g>
	<path d="M317.42,211.7c-13.88-23.7-39.57-38.42-67.23-38.42c-27.65,0-53.35,14.72-67.22,38.42H67.5l1.01,1.42
		c0.36,0.5,36.47,50.7,93.33,87.58l0.23,0.14h30.08c14.79,16.45,35.91,25.88,58.06,25.88c22.15,0,43.28-9.44,58.06-25.88h29.67
		l0.23-0.14c56.86-36.88,92.96-87.08,93.32-87.58l1.01-1.42H317.42z"/>
	<path class="st0" d="M419.7,225.13h-97.03c1.51,4.29,2.63,8.75,3.34,13.35h2.56c-0.66-3.43-1.55-6.81-2.68-10.11
		c0,0,81.97-1.93,93.64-3.01c-7.09,8.45-14.53,16.61-22.3,24.44h-70.24L327,250c0,4.5-0.47,8.87-1.23,13.15h3.66
		c0.45-3.25,0.78-6.54,0.78-9.91l-0.01-0.2c0,0,56.57-1.83,66.74-2.96c-8.6,8.68-17.6,16.95-26.97,24.79h-47.3
		c-1.63,4.64-3.72,9.11-6.23,13.35h4.92c1.71-3.26,3.28-6.59,4.52-10.11c0,0,34.97-1.7,43.61-2.85
		c-10.23,8.55-20.95,16.49-32.12,23.79h-29.91l-0.27,0.3c-28.02,31.49-76.26,34.3-107.75,6.28c-2.21-1.97-4.31-4.06-6.28-6.28
		l-0.27-0.3H162.6c-11.17-7.3-21.9-15.24-32.13-23.8c8.99,1.13,47.09,2.86,47.09,2.86c1.67,3.56,4.07,6.9,6.22,10.11h0.17
		c-2.51-4.23-4.6-8.7-6.23-13.35h-47.69c-9.37-7.84-18.37-16.12-26.97-24.79c10.4,1.14,69.35,3.1,69.35,3.16
		c0,3.18,1.19,6.3,2.15,9.36c-0.74-4.16-1.13-8.38-1.15-12.6l0.01-0.2h-70.63c-7.82-7.89-15.31-16.11-22.45-24.62l95.23,3.19
		c-0.52,3.2-0.8,6.63-1.2,10.11h0.03c0.71-4.59,1.82-9.06,3.33-13.35H80.29c-3.19-3.79-6.28-7.67-9.26-11.64h112.94l0.26-0.45
		c13.49-23.42,38.77-37.97,65.96-37.97s52.47,14.55,65.97,37.97l0.26,0.45h112.54C425.99,217.46,422.9,221.34,419.7,225.13z"/>
	<path d="M250.2,183.88c-36.98,0-66.96,29.6-66.96,66.12c0,36.51,29.98,66.12,66.96,66.12c36.98,0,66.97-29.61,66.97-66.12
		C317.17,213.48,287.18,183.88,250.2,183.88z"/>
	<path class="st0" d="M250.2,312.07c-34.72,0-62.87-27.79-62.87-62.08s28.15-62.08,62.87-62.08c34.72,0,62.86,27.79,62.86,62.08
		S284.92,312.07,250.2,312.07z"/>
	<ellipse cx="250.2" cy="250" rx="59.19" ry="58.44"/>
	<path class="st0" d="M293,234.04h7.92v32.92H293V234.04z M242.11,234.04h7.92v32.92h-7.92V234.04z M278.97,234.04v19.97
		l-14.48-19.97h-7.46v32.92h7.46v-19.97l14.48,19.97h7.47v-32.92H278.97z M225.24,234.04l-8.69,20.54l-8.69-20.54h-9.04v32.92h7.47
		v-18.65l7.73,18.58l0.03,0.06h4.71l0.03-0.06l8.48-20.38v20.44h7.46v-32.92H225.24L225.24,234.04z"/>
</g>
</svg>
